# xmcd
#
# Track frame offsets: 
#        150
#        21320
#        38185
#        60743
#
# Disc length: 1203 seconds
#
# Revision: 0
# Processed by: cddbd v1.5.2PL0 Copyright (c) Steve Scherf et al.
# Submitted via: ExactAudioCopy v0.99pb4
#
DISCID=2f04b104
DTITLE=Melissa Etheridge - Similar Features (single)
DYEAR=1988
DGENRE=Pop
TTITLE0=Similar Features
TTITLE1=I Want You
TTITLE2=Don't You Need
TTITLE3=The Late September Dogs
EXTD=
EXTT0=
EXTT1=
EXTT2=
EXTT3=
PLAYORDER=
